<svg width="800" height="800" viewBox="0 0 32 32" xmlns="http://www.w3.org/2000/svg"><path d="M8.773 17.193H9.336c.167 0 .304.133.308.3v1.165a.283.283 0 0 1-.018.097l.001-.002a.312.312 0 0 1-.293.205H8.768a.31.31 0 0 1-.309-.3v-1.166a.307.307 0 0 1 .307-.299h.008zm-5.835-2.47h.847a.316.316 0 0 1 .312.316v1.053a.316.316 0 0 1-.312.316H3.66c-.24.003-.482 0-.722 0zm4.639-1.965h-.008a.29.29 0 0 0-.29.282v1.279c.005.167.141.3.308.3H9.359a.31.31 0 0 1 .266.287v.176a.299.299 0 0 1-.257.28h-.877a1.871 1.871 0 0 0-1.992 1.867v.027-.001 1.586a1.768 1.768 0 0 0 1.872 1.882h-.005 2.441a.77.77 0 0 0 .77-.749v-5.17a1.866 1.866 0 0 0-2.161-2.044l.011-.001zm5.004-.007a.299.299 0 0 0-.296.299V16.14c-.002.028-.002.062-.002.095 0 1.058.858 1.915 1.915 1.915l.063-.001h-.003.844c.017 0 .033.002.048.005h-.002a.318.318 0 0 1 .005.629h-.002l-.023.005-.379.008h-1.576a.299.299 0 0 0-.295.299v1.365a.3.3 0 0 0 .295.3h2.187l.057.001a1.916 1.916 0 0 0 1.913-2.015v.005V13.052a.299.299 0 0 0-.295-.299h-1.337a.299.299 0 0 0-.295.299v.001c-.006.983 0 1.906 0 2.818a.316.316 0 0 1-.312.312h-.561a.316.316 0 0 1-.312-.316v-.003c.006-.942-.006-1.874-.006-2.812v-.001a.299.299 0 0 0-.295-.299zm-11.287 0a.293.293 0 0 0-.29.292V20.461a.29.29 0 0 0 .269.289h1.363a.298.298 0 0 0 .296-.298v-.002l.005-2.072h1.278l.068.001a1.75 1.75 0 0 0 1.747-1.856v.005-1.922a1.753 1.753 0 0 0-1.819-1.855h.003zm24.797-.079c-.5.001-.957.188-1.304.495l.002-.002v-.155a.297.297 0 0 0-.292-.28H23.16a.3.3 0 0 0-.295.3v7.403a.3.3 0 0 0 .295.3h1.337a.296.296 0 0 0 .291-.26v-5.331a.49.49 0 0 1 .463-.49h.246c.108.009.205.05.283.113l-.001-.001a.506.506 0 0 1 .181.388v.011-.001 5.091l.005.194v.001a.3.3 0 0 0 .296.3h1.337a.3.3 0 0 0 .294-.287v-.001l-.001-5.306v-.013c0-.17.085-.321.216-.411l.002-.001a.524.524 0 0 1 .243-.085h.249a.496.496 0 0 1 .463.494v.016-.001c.006 1.744.005 3.499.005 5.278v.001a.3.3 0 0 0 .296.3h1.337a.299.299 0 0 0 .295-.298v-5.68c.002-.029.002-.063.002-.097 0-.223-.038-.438-.107-.638l.004.014a2.004 2.004 0 0 0-1.886-1.362h-.019c-.567 0-1.079.24-1.439.624l-.001.001a1.973 1.973 0 0 0-1.441-.625zm-5.28-1.462a.296.296 0 0 0-.052.005h.002c-.85.237-.679 1.435-2.226 1.537h-.155a.256.256 0 0 0-.062.007h.001a.301.301 0 0 0-.23.292v1.367c0 .164.132.297.296.298h.806v5.781c0 .161.13.292.291.294h1.322a.295.295 0 0 0 .291-.295v-5.78h.75a.298.298 0 0 0 .295-.298v-1.367a.299.299 0 0 0-.295-.299h-.765v-1.271a.272.272 0 0 0-.27-.272z"/></svg>